<?xml version="1.0" encoding="UTF-8" standalone="no"?>
<svg
   width="24"
   height="24"
   viewBox="0 0 24 24"
   fill="none"
   stroke="currentColor"
   stroke-width="2"
   stroke-linecap="round"
   stroke-linejoin="round"
   class="lucide lucide-eraser-icon lucide-eraser"
   version="1.1"
   id="svg3"
   xmlns="http://www.w3.org/2000/svg"
   xmlns:svg="http://www.w3.org/2000/svg">
  <defs
     id="defs3" />
  <path
     d="m7 21-4.3-4.3c-1-1-1-2.5 0-3.4l9.6-9.6c1-1 2.5-1 3.4 0l5.6 5.6c1 1 1 2.5 0 3.4L13 21"
     id="path1" />
  <path
     d="M22 21H7"
     id="path2" />
  <path
     d="m5 11 9 9"
     id="path3" />
  <path
     style="fill:#ffffff;stroke:#ff533e;stroke-width:0.0194348;fill-opacity:1"
     d="M 10.210757,14.752002 6.459622,11.000548 9.8160254,7.6426783 C 12.367029,5.0905596 13.239386,4.2512757 13.451467,4.1450647 c 0.349597,-0.1750803 0.789698,-0.1876196 1.091224,-0.031091 0.115256,0.059832 1.582424,1.4856537 3.265247,3.1732297 3.019567,3.0280936 3.057066,3.0684746 3.149916,3.3920116 0.07937,0.276581 0.08343,0.372957 0.02609,0.620542 -0.06661,0.287624 -0.13239,0.357763 -3.515539,3.748403 -1.896214,1.900412 -3.460904,3.455295 -3.477088,3.455295 -0.01619,0 -1.717438,-1.688155 -3.780562,-3.751453 z"
     id="path4" />
  <path
     style="fill:#ffffff;fill-opacity:1;stroke:#ff533e;stroke-width:0.0194348"
     d="M 5.321794,17.868809 C 4.1705931,16.713048 3.1848808,15.680805 3.131322,15.574936 3.077763,15.469067 3.0207033,15.236442 3.004522,15.057992 2.959692,14.563595 3.080751,14.37604 4.1030807,13.356012 l 0.8902675,-0.888263 3.7509032,3.751221 3.7509036,3.751222 H 9.9550205 7.4148864 Z"
     id="path5" />
</svg>
