<?xml version="1.0" encoding="UTF-8" standalone="no"?>
<svg
   width="200"
   height="200"
   viewBox="0 0 208 208"
   version="1.1"
   id="svg4"
   xmlns="http://www.w3.org/2000/svg"
   xmlns:svg="http://www.w3.org/2000/svg">
  <defs
     id="defs4" />
  <g
     id="g2"
     transform="translate(-0.5,-587.21484)"
     style="display:inline">
    <path
       fill="none"
       stroke-width="10"
       stroke-linecap="butt"
       stroke-linejoin="miter"
       stroke="#1476c6"
       stroke-opacity="1"
       stroke-miterlimit="4"
       d="m 1026.4453,2047.8516 c 564.1016,0 1021.4063,-457.3047 1021.4063,-1021.4063 C 2047.8516,462.34375 1590.5469,5 1026.4453,5 462.30469,5 5,462.34375 5,1026.4453 5,1590.5469 462.30469,2047.8516 1026.4453,2047.8516 Z m 0,0"
       transform="matrix(0.1,0,0,-0.1,0,792)"
       id="path2" />
  </g>
  <path
     fill-rule="nonzero"
     fill="#1476c6"
     fill-opacity="1"
     d="m 102.14453,4.207026 c 54.08594,0 97.93359,43.84766 97.93359,97.933604 0,54.08984 -43.84765,97.9375 -97.93359,97.9375 -54.089842,0 -97.937499,-43.84766 -97.937499,-97.9375 0,-54.085944 43.847657,-97.933604 97.937499,-97.933604"
     id="path3"
     style="display:inline" />
  <path
     fill-rule="nonzero"
     fill="#ffffff"
     fill-opacity="1"
     d="M 185.51172,115.58985 H 69.265625 l 27.648437,27.65234 H 56.015625 L 14.816406,102.04297 56.015625,60.843746 H 96.914062 L 69.265625,88.492186 H 185.51172 v 27.097664"
     id="path4"
     style="display:inline" />
</svg>
