<?xml version="1.0" encoding="UTF-8"?>
<svg width="1200pt" height="1200pt" version="1.1" viewBox="0 0 1200 1200" xmlns="http://www.w3.org/2000/svg">
 <path d="m1181.3 871.87h-56.203c-10.359 0-18.75 8.3906-18.75 18.75s8.3906 18.75 18.75 18.75h56.203c10.312 0 18.75-8.3906 18.75-18.75s-8.4375-18.75-18.75-18.75z"/>
 <path d="m1181.3 1162.5h-1161c-10.359 0-18.75 8.3906-18.75 18.75s8.3906 18.75 18.75 18.75h1161c10.312 0 18.75-8.3906 18.75-18.75s-8.4375-18.75-18.75-18.75z"/>
 <path d="m1.5469 600c0 10.359 8.3906 18.75 18.75 18.75h430.82c2.9531-3.375 6.1875-6.5156 9.7031-9.2812 0.65625-9.75 3-19.312 6.9375-28.219h-447.47c-10.359 0-18.75 8.3906-18.75 18.75z"/>
 <path d="m1162.3 630.98h-8.3906c-14.766-34.969-48.609-58.078-86.531-59.109h-75.797l-89.953-77.109h-0.046875c-10.875-10.688-25.5-16.688-40.734-16.641h-193.31c-16.312-0.09375-31.922 6.75-42.891 18.891l-69.469 74.859h-19.969c-21.844 0-37.078 22.125-37.078 42l0.046875 14.25h35.812c0.5625 0 1.0781 0.09375 1.6406 0.09375v-14.344c0.1875-1.6406 0.79688-3.1875 1.7344-4.5h529.97c26.906 0 49.312 23.016 55.359 45.281h0.046875c2.25 8.1562 9.6094 13.828 18.047 13.828l21.75 0.14062v25.172c-0.046875-0.046875-0.09375-0.046875-0.1875-0.046875h-96.188c-8.25-27.797-33.797-46.875-62.812-46.875-28.969 0-54.516 19.078-62.766 46.875h-230.21c-8.2969-27.75-33.797-46.828-62.812-46.875-14.906 0-29.391 5.1562-40.969 14.625l25.547 27.516h0.046875c10.125-6.75 23.484-6.1875 32.953 1.4062 9.5156 7.5938 13.031 20.484 8.6719 31.875 12.609 1.3594 24.562 6.1406 34.641 13.828 0.65625-1.6406 1.4062-3.1875 1.9219-4.875h230.26-0.046875c8.25 27.797 33.797 46.875 62.766 46.875 29.016 0 54.562-19.078 62.812-46.875h96.141c20.531 0.23438 37.359-16.172 37.688-36.703v-26.859c-0.32812-20.531-17.156-36.938-37.688-36.703zm-421.08-59.109h-134.95l46.125-49.688h0.046875c3.8438-4.2656 9.3281-6.6562 15.094-6.5625h73.688zm37.453 0v-56.25h82.172c5.4375-0.046875 10.688 2.1094 14.578 5.9531 0.375 0.42188 0.79688 0.79688 1.2656 1.1719l57.281 49.125zm224.72 168.74h-0.046875c-11.344 0-21.609-6.8438-25.969-17.344-4.4062-10.5-1.9688-22.594 6.0469-30.656 8.0625-8.0625 20.156-10.453 30.656-6.0938 10.5 4.3125 17.391 14.578 17.391 25.969 0 15.516-12.609 28.078-28.125 28.125z"/>
 <path d="m666.32 759.37h-19.922l-69.188-74.484c-10.969-12.328-26.719-19.359-43.219-19.266h-193.31c-15.234-0.046875-29.859 5.9531-40.734 16.641l-89.953 77.109h-75.844c-37.922 1.0312-71.719 24.141-86.531 59.109h-8.3438c-20.531-0.23438-37.406 16.172-37.734 36.703v26.906-0.046875c0.32812 20.531 17.203 36.938 37.734 36.703h96.141c8.2031 27.797 33.75 46.875 62.766 46.875 28.969 0 54.516-19.078 62.766-46.875h54.562c24.047-23.719 56.391-37.172 90.188-37.5h61.969l0.046875-0.046875-206.76-0.046875c-8.2969-27.75-33.797-46.781-62.766-46.781s-54.469 19.031-62.766 46.781h-96.422v-25.219c0.046875 0.046875 0.09375 0.046875 0.23438 0.046875h21.516c8.4375 0 15.844-5.6719 18.047-13.828 6.0938-22.266 28.453-45.281 55.359-45.281h437.02c12.844-6.1406 26.859-9.3281 41.062-9.375h88.734c-4.3594-15.797-18.281-27.094-34.641-28.125zm-468.14 112.5c11.391 0 21.656 6.8438 26.016 17.344 4.3594 10.5 1.9688 22.594-6.0938 30.656-8.0156 8.0625-20.156 10.453-30.656 6.0938-10.5-4.3125-17.344-14.578-17.344-25.969 0-15.516 12.562-28.078 28.078-28.125zm224.72-112.5h-155.34l57.328-49.125c0.42188-0.375 0.84375-0.75 1.2656-1.1719 3.8438-3.8438 9.0938-6 14.531-5.9531h82.172zm37.453 0v-56.25h73.688-0.046875c5.9062-0.046875 11.578 2.4844 15.469 6.9375l45.797 49.312z"/>
 <path d="m848.72 844.26c-10.969-12.328-26.672-19.359-43.172-19.266h-193.31c-15.234-0.046875-29.906 5.9531-40.781 16.641l-89.953 77.109h-75.797c-37.922 1.0312-71.766 24.141-86.531 59.109h-8.3906c-20.531-0.23438-37.406 16.172-37.688 36.703v26.906-0.046875c0.28125 20.531 17.156 36.938 37.688 36.703h96.141c8.25 27.797 33.797 46.875 62.766 46.875 29.016 0 54.562-19.078 62.812-46.875h230.26-0.046875c8.25 27.797 33.797 46.875 62.766 46.875 29.016 0 54.562-19.078 62.812-46.875h96.375c10.359 0 18.75-8.3906 18.703-18.75v-44.812c-0.14062-17.016-11.906-31.688-28.453-35.578v-18.234c0-19.875-15.234-42-37.078-42h-19.922zm-116.86 18.234h73.688c5.9062-0.046875 11.531 2.4844 15.422 6.9375l45.797 49.312h-134.9zm-135.47 7.125c0.42188-0.375 0.84375-0.75 1.2656-1.1719 3.8438-3.8438 9.0938-6 14.578-5.9531h82.172v56.25h-155.29zm-126.71 217.87c-11.344 0-21.656-6.8438-26.016-17.344s-1.9688-22.594 6.0938-30.656c8.0156-8.0625 20.156-10.453 30.656-6.0938 10.5 4.3125 17.344 14.578 17.344 25.969 0 15.516-12.562 28.078-28.078 28.125zm355.78 0c-11.344 0-21.609-6.8438-25.969-17.344-4.4062-10.5-1.9688-22.594 6.0469-30.656 8.0625-8.0625 20.156-10.453 30.656-6.0938 10.5 4.3125 17.391 14.578 17.391 25.969-0.046875 15.516-12.609 28.078-28.125 28.125zm111.98-126.74v35.859c0 10.359 8.3906 18.75 18.75 18.75h9.4688l0.23438 0.046875v25.219h-77.672 0.046875c-8.25-27.797-33.797-46.875-62.766-46.875-29.016 0-54.562 19.031-62.812 46.828l-230.26-0.046875c-8.25-27.75-33.797-46.781-62.719-46.781-28.969 0-54.516 19.031-62.766 46.781h-96.422v-25.172c0.046875 0.046875 0.09375 0.046875 0.23438 0.046875h21.469v-0.046875c8.4375 0 15.844-5.6719 18.094-13.828 6.0469-22.266 28.453-45.281 55.359-45.281h529.97c0.98438 1.3125 1.5938 2.8594 1.7812 4.5z"/>
 <path d="m994.08 909.37h13.5-0.046875c10.359 0 18.75-8.3906 18.75-18.75s-8.3906-18.75-18.75-18.75h-82.031l8.7188 9.375h3.6094c22.078 0.14062 42.891 10.547 56.25 28.125z"/>
 <path d="m675.71 178.13c22.734 0.046875 43.266-13.641 51.984-34.688 8.7656-21 3.9375-45.188-12.141-61.312-16.078-16.078-40.266-20.906-61.312-12.234-21 8.7188-34.734 29.25-34.734 51.984 0 31.031 25.172 56.203 56.203 56.25zm0-75c7.5469 0 14.391 4.5469 17.297 11.578 2.9531 6.9844 1.3125 15.047-4.0312 20.438-5.3438 5.3438-13.406 6.9375-20.438 4.0781-6.9844-2.9062-11.578-9.75-11.578-17.344 0-10.359 8.3906-18.75 18.75-18.75z"/>
 <path d="m825.47 178.13c22.781 0.046875 43.312-13.641 52.031-34.688 8.7188-21 3.9375-45.188-12.141-61.312-16.078-16.078-40.266-20.906-61.312-12.234-21.047 8.7188-34.734 29.25-34.734 51.984 0 31.031 25.125 56.203 56.156 56.25zm0-75c7.5938 0 14.438 4.5469 17.344 11.578 2.9062 6.9844 1.3125 15.047-4.0312 20.438-5.3438 5.3438-13.453 6.9375-20.438 4.0781-7.0312-2.9062-11.578-9.75-11.578-17.344 0-10.359 8.3906-18.75 18.703-18.75z"/>
 <path d="m525.89 178.13c22.734 0.046875 43.266-13.641 51.984-34.688 8.7656-21 3.9375-45.188-12.141-61.312-16.078-16.078-40.266-20.906-61.312-12.234-21 8.7188-34.734 29.25-34.734 51.984 0.046875 31.031 25.172 56.203 56.203 56.25zm0-75c7.5938 0 14.438 4.5469 17.344 11.578 2.9062 6.9844 1.3125 15.047-4.0781 20.438-5.3438 5.3438-13.406 6.9375-20.438 4.0781-6.9844-2.9062-11.578-9.75-11.578-17.344 0-10.359 8.3906-18.75 18.75-18.75z"/>
 <path d="m18.703 548.44h149.81c10.359 0 18.75-8.3906 18.75-18.75s-8.3906-18.75-18.75-18.75h-63.984v-351.56c0.046875-10.359 8.3906-18.75 18.75-18.75h262.18v46.875c0 31.031 25.125 56.203 56.156 56.25h468.14c31.031-0.046875 56.156-25.219 56.156-56.25v-131.26c0-31.031-25.125-56.203-56.156-56.25h-468.14c-31.031 0.046875-56.156 25.219-56.156 56.25v46.875h-262.18c-31.031 0.046874-56.156 25.219-56.203 56.25v351.56h-48.375c-10.312 0-18.75 8.3906-18.75 18.75 0 10.359 8.4375 18.75 18.75 18.75zm404.21-492.19c0-10.359 8.3438-18.75 18.703-18.75h468.14c10.359 0 18.703 8.3906 18.75 18.75v131.26c-0.046874 10.359-8.3906 18.75-18.75 18.75h-468.14c-10.359 0-18.703-8.3906-18.703-18.75z"/>
</svg>
