<?xml version="1.0" encoding="UTF-8" standalone="no"?>
<svg
   width="24"
   height="24"
   viewBox="0 0 24 24"
   fill="none"
   stroke="currentColor"
   stroke-width="2"
   stroke-linecap="round"
   stroke-linejoin="round"
   class="lucide lucide-paintbrush-icon lucide-paintbrush"
   version="1.1"
   id="svg3"
   xmlns="http://www.w3.org/2000/svg"
   xmlns:svg="http://www.w3.org/2000/svg">
  <defs
     id="defs3" />
  <path
     d="m14.622 17.897-10.68-2.913"
     id="path1" />
  <path
     d="M18.376 2.622a1 1 0 1 1 3.002 3.002L17.36 9.643a.5.5 0 0 0 0 .707l.944.944a2.41 2.41 0 0 1 0 3.408l-.944.944a.5.5 0 0 1-.707 0L8.354 7.348a.5.5 0 0 1 0-.707l.944-.944a2.41 2.41 0 0 1 3.408 0l.944.944a.5.5 0 0 0 .707 0z"
     id="path2" />
  <path
     d="M9 8c-1.804 2.71-3.97 3.46-6.583 3.948a.507.507 0 0 0-.302.819l7.32 8.883a1 1 0 0 0 1.185.204C12.735 20.405 16 16.792 16 15"
     id="path3" />
  <path
     style="fill:#ffffff;stroke:#ff533e;stroke-width:0.00941713"
     d="M 13.216364,10.769138 9.4441913,6.9961356 9.8268793,6.6205315 C 10.053748,6.3978626 10.26605,6.2149074 10.348288,6.1711993 c 0.393818,-0.2093087 0.914655,-0.2092623 1.30798,1.172e-4 0.09062,0.048241 0.356713,0.2875083 0.767422,0.6900596 0.345786,0.338918 0.691198,0.6557984 0.767583,0.7041789 0.216015,0.1368197 0.430512,0.2013581 0.722288,0.2173241 0.316089,0.017296 0.499892,-0.017578 0.768527,-0.1458202 0.194182,-0.092699 0.283143,-0.1774989 2.37486,-2.2637553 2.357603,-2.3514493 2.273297,-2.2768061 2.645598,-2.3423855 0.33614,-0.05921 0.694848,0.059949 0.950717,0.3158186 0.253238,0.2532377 0.374946,0.6150471 0.31719,0.9429318 -0.0673,0.3820937 0.01738,0.2862242 -2.343684,2.6533839 -2.086365,2.0917555 -2.171127,2.1806742 -2.263828,2.3748599 -0.127718,0.2675385 -0.162966,0.4524174 -0.14652,0.7685267 0.01524,0.292912 0.09451,0.540519 0.242982,0.758947 0.04844,0.07126 0.360914,0.406322 0.694399,0.744591 0.41818,0.424179 0.627762,0.657447 0.675382,0.751709 0.212723,0.421072 0.212671,0.891705 -1.46e-4,1.312073 -0.04338,0.08569 -0.207187,0.276887 -0.439097,0.512528 -0.203448,0.20672 -0.376992,0.375854 -0.385655,0.375854 -0.0087,0 -1.713228,-1.697851 -3.787922,-3.773003 z"
     id="path4" />
  <path
     style="fill:#ffffff;stroke:#ff533e;stroke-width:0.00941713;fill-opacity:1"
     d="M 9.349188,15.407794 4.525255,14.090285 3.9850003,13.435502 3.4447455,12.780718 3.9569969,12.649282 C 6.0202821,12.119873 7.4294884,11.334333 8.7020764,10.004212 8.8652116,9.8337017 9.0246733,9.6590433 9.0564355,9.6160824 l 0.05775,-0.078111 2.9032955,2.9031996 2.903295,2.9032 -0.06256,0.166083 c -0.122687,0.325724 -0.617409,1.223308 -0.670589,1.216662 -0.008,-9.97e-4 -2.18528,-0.594692 -4.8384428,-1.319322 z"
     id="path5" />
  <path
     style="fill:#000000;fill-opacity:1;stroke:#000000;stroke-width:0.00941713;stroke-opacity:1"
     d="M 8.4622824,18.869673 C 7.5370363,17.746854 6.7832695,16.824931 6.7872451,16.820955 c 0.00525,-0.0052 5.8629439,1.583356 6.0455299,1.639545 0.04062,0.0125 -1.405633,1.450684 -1.775827,1.765924 -0.389041,0.331289 -0.845683,0.684738 -0.884654,0.684738 -0.01526,0 -0.7847654,-0.91867 -1.7100116,-2.041489 z"
     id="path6" />
</svg>
